<?xml version="1.0" encoding="utf-8"?>
<!-- Generator: Adobe Illustrator 23.0.2, SVG Export Plug-In . SVG Version: 6.00 Build 0)  -->
<svg version="1.1" id="Layer_3" xmlns="http://www.w3.org/2000/svg" xmlns:xlink="http://www.w3.org/1999/xlink" x="0px" y="0px"
	 viewBox="0 0 1920 1080" style="enable-background:new 0 0 1920 1080;" xml:space="preserve">
<style type="text/css">
	.st0{fill:none;stroke:#000000;stroke-width:10;stroke-miterlimit:10;}
	.st1{stroke:#000000;stroke-miterlimit:10;}
</style>
<g>
	<circle class="st0" cx="431" cy="363" r="130"/>
	<path class="st0" d="M588.94,779.77c0,0-287.84-37.07-287.84-416.93"/>
	<path class="st0" d="M147.01,779.77c0,0,181.98-131.54,154.09-416.93"/>
	<circle class="st0" cx="743" cy="686" r="87"/>
	<circle class="st0" cx="1055" cy="686" r="87"/>
	<path class="st0" d="M916.26,359.91c0,0,175.58,203.89-19.29,419.85"/>
	<path class="st0" d="M1177.63,775.59c0,0,133.68-37.91,133.68-183.56"/>
	<path class="st0" d="M1445,775.59c0,0-133.68-37.91-133.68-183.56"/>
	<circle class="st1" cx="1311" cy="524" r="15.5"/>
	<path class="st0" d="M1569.37,642.59c0-36,29.18-65.18,65.18-65.18c36,0,65.18,29.18,65.18,65.18"/>
	<path class="st0" d="M1705.04,583.38c0,0-34.58,114.39,67.17,192.21"/>
	<path class="st0" d="M1564.05,583.38c0,0,34.58,114.39-67.17,192.21"/>
</g>
</svg>
